<?xml version="1.0" encoding="iso-8859-1"?>
<!-- Generator: Adobe Illustrator 16.0.0, SVG Export Plug-In . SVG Version: 6.00 Build 0)  -->
<!DOCTYPE svg PUBLIC "-//W3C//DTD SVG 1.1//EN" "http://www.w3.org/Graphics/SVG/1.1/DTD/svg11.dtd">
<svg xmlns="http://www.w3.org/2000/svg" xmlns:xlink="http://www.w3.org/1999/xlink" version="1.1" id="Capa_1" x="0px" y="0px" width="512px" height="512px" viewBox="0 0 792 792" style="enable-background:new 0 0 792 792;" xml:space="preserve">
<g>
	<g id="location">
		<g>
			<path d="M396,148.5c-68.335,0-123.75,55.415-123.75,123.75S327.665,396,396,396s123.75-55.415,123.75-123.75     S464.335,148.5,396,148.5z M396,346.5c-41.011,0-74.25-33.239-74.25-74.25S354.989,198,396,198s74.25,33.239,74.25,74.25     S437.011,346.5,396,346.5z M396,0C231.982,0,99,132.982,99,297c0,164.019,297,495,297,495s297-330.981,297-495     C693,132.982,560.019,0,396,0z M148.5,300.094C148.5,161.692,259.306,49.5,396,49.5s247.5,112.192,247.5,250.594     C643.5,438.496,396,717.75,396,717.75S148.5,438.496,148.5,300.094z" fill="#FFFFFF"/>
		</g>
	</g>
</g>
</svg>
