<?xml version="1.0" encoding="utf-8"?>
<!-- Generator: Adobe Illustrator 20.0.0, SVG Export Plug-In . SVG Version: 6.00 Build 0)  -->
<svg version="1.1" id="Layer_1" xmlns="http://www.w3.org/2000/svg" xmlns:xlink="http://www.w3.org/1999/xlink" x="0px" y="0px"
	 viewBox="0 0 26 25" style="enable-background:new 0 0 26 25;" xml:space="preserve">
<style type="text/css">
	.st0{fill:none;enable-background:new;}
	.st2{fill:#393939 !important;}
</style>
<path class="st0" d="M0,0"/>
<path class="st2" d="M25.7,23.6l-4.2-4.2c1.7-2,2.8-4.6,2.8-7.4c0-6.2-5-11.2-11.2-11.2S1.9,5.8,1.9,12c0,6.2,5,11.2,11.2,11.2
	c2.8,0,5.4-1.1,7.4-2.8l4.2,4.2L25.7,23.6z M3.3,12c0-5.4,4.4-9.8,9.8-9.8c5.4,0,9.8,4.4,9.8,9.8s-4.4,9.8-9.8,9.8
	C7.7,21.8,3.3,17.4,3.3,12z"/>
</svg>
