<?xml version="1.0" encoding="utf-8"?>
<!-- Generator: Adobe Illustrator 20.1.0, SVG Export Plug-In . SVG Version: 6.00 Build 0)  -->
<svg version="1.1" id="Layer_1" xmlns="http://www.w3.org/2000/svg" xmlns:xlink="http://www.w3.org/1999/xlink" x="0px" y="0px"
	 viewBox="0 0 18.1 18.1" style="enable-background:new 0 0 18.1 18.1;" xml:space="preserve">
<style type="text/css">
	.st0{fill:#FFCC39;}
</style>
<path class="st0" d="M9.5,0.7l2.3,4.7c0.1,0.3,0.4,0.5,0.7,0.5l5.2,0.7c0.4,0.1,0.5,0.5,0.3,0.8l-3.7,3.6c-0.2,0.2-0.3,0.5-0.3,0.8
	l0.9,5.1c0.1,0.4-0.3,0.7-0.7,0.5l-4.6-2.4c-0.3-0.1-0.6-0.1-0.9,0L4,17.6c-0.3,0.2-0.8-0.1-0.7-0.5l0.9-5.1c0.1-0.3,0-0.6-0.3-0.8
	L0.2,7.5c-0.3-0.3-0.1-0.7,0.3-0.8l5.2-0.7c0.3,0,0.6-0.2,0.7-0.5l2.3-4.7C8.8,0.4,9.3,0.4,9.5,0.7z"/>
</svg>
