<?xml version="1.0" standalone="no"?>
<!DOCTYPE svg PUBLIC "-//W3C//DTD SVG 20010904//EN"
 "http://www.w3.org/TR/2001/REC-SVG-20010904/DTD/svg10.dtd">
<svg version="1.0" xmlns="http://www.w3.org/2000/svg"
 width="839.000000pt" height="923.000000pt" viewBox="0 0 839.000000 923.000000"
 preserveAspectRatio="xMidYMid meet">

<g transform="translate(0.000000,923.000000) scale(0.100000,-0.100000)"
fill="#000000" stroke="none">
<path d="M190 8375 l0 -685 464 0 465 0 4 -2292 c4 -2336 4 -2359 43 -2658 84
-656 324 -1169 753 -1613 455 -469 1006 -737 1704 -827 606 -78 1245 -29 1737
132 717 234 1300 735 1620 1393 152 311 228 597 277 1035 15 141 17 367 20
2493 l4 2337 464 0 465 0 0 685 0 685 -1680 0 -1680 0 0 -685 0 -685 390 0
390 0 0 -2182 c0 -1423 -4 -2223 -10 -2298 -30 -324 -102 -567 -231 -777 -67
-108 -262 -309 -369 -380 -548 -365 -1326 -309 -1794 128 -197 184 -318 392
-387 667 -67 264 -63 104 -66 2590 l-4 2252 391 0 390 0 0 685 0 685 -1680 0
-1680 0 0 -685z"/>
</g>
</svg>
