<?xml version="1.0" encoding="utf-8"?>
<!-- Generator: Adobe Illustrator 20.0.0, SVG Export Plug-In . SVG Version: 6.00 Build 0)  -->
<svg version="1.1" id="Layer_1" xmlns="http://www.w3.org/2000/svg" xmlns:xlink="http://www.w3.org/1999/xlink" x="0px" y="0px"
	 viewBox="0 0 95 95" style="enable-background:new 0 0 95 95;" xml:space="preserve">
<style type="text/css">
	.ulogo-0{fill:#F3F3F3;}
	.ulogo-1{fill:#F54848;}
</style>
<circle class="ulogo-0" cx="47.5" cy="47.5" r="47.5"/>
<g>
	<path class="ulogo-1" d="M70.3,25.5v7.8H65v24.3c0,5.1-0.8,9.1-4.5,12.9c-3.5,3.6-8.1,4.9-13,4.9c-4.7,0-9.1-1.1-12.6-4.5
		c-4-3.9-4.9-8.2-4.9-13.6v-24h-5.3v-7.8h19.1v7.8h-4.5v23.1c0,2.3,0.1,4.8,1.4,6.9c1.5,2.3,4.1,3.4,6.7,3.4c2.5,0,4.7-1,6.3-3
		c1.6-2.1,1.8-4.8,1.8-7.3V33.3h-4.5v-7.8H70.3z"/>
</g>
</svg>
