<?xml version="1.0" encoding="UTF-8" standalone="no"?>
<svg width="40px" height="40px" viewBox="0 0 40 40" version="1.1" xmlns="http://www.w3.org/2000/svg" xmlns:xlink="http://www.w3.org/1999/xlink">
    <!-- Generator: Sketch 39 (31667) - http://www.bohemiancoding.com/sketch -->
    <title>Twitter</title>
    <desc>Created with Sketch.</desc>
    <defs></defs>
    <g id="Page-1" stroke="none" stroke-width="1" fill="none" fill-rule="evenodd">
        <g id="Route-2---Article-" transform="translate(-240.000000, -24.000000)">
            <g id="Bar-in-black" transform="translate(0.000000, 24.000000)">
                <g id="Twitter" transform="translate(240.000000, 0.000000)">
                    <rect id="Rectangle-125-Copy" fill="#4A90E2" x="0" y="0" width="40" height="40"></rect>
                    <path d="M26.11472,15.0596374 C26.79232,14.6526946 27.31288,14.0083016 27.558,13.2404152 C26.92368,13.6172261 26.2212,13.8908988 25.47344,14.0383535 C24.87472,13.3992496 24.0216,13 23.07744,13 C21.26464,13 19.7948,14.4722229 19.7948,16.2881594 C19.7948,16.5458845 19.82384,16.796878 19.87984,17.0375337 C17.15168,16.9004169 14.73288,15.5912757 13.11392,13.6018395 C12.83136,14.0874783 12.66944,14.6522939 12.66944,15.2549348 C12.66944,16.3957853 13.24896,17.4022436 14.12976,17.9919822 C13.59168,17.9748326 13.08552,17.8269772 12.64296,17.5806318 C12.64264,17.5944156 12.64264,17.6081192 12.64264,17.6220633 C12.64264,19.215215 13.77416,20.5441504 15.27584,20.8463524 C15.0004,20.9214421 14.7104,20.9616715 14.41104,20.9616715 C14.19952,20.9616715 13.99384,20.941076 13.79336,20.9026897 C14.21112,22.209026 15.42336,23.1597882 16.85984,23.1862339 C15.7364,24.0682373 14.32104,24.5939453 12.78304,24.5939453 C12.51808,24.5939453 12.2568,24.5783183 12,24.5478657 C13.45272,25.4809173 15.17816,26.0253777 17.03192,26.0253777 C23.06976,26.0253777 26.3716,21.0147232 26.3716,16.669458 C26.3716,16.5268917 26.36832,16.3850467 26.362,16.2440031 C27.00344,15.7804024 27.55992,15.2013222 28,14.5418631 C27.41136,14.8034349 26.77864,14.9801401 26.11472,15.0596374 Z" fill="#FEFEFE"></path>
                </g>
            </g>
        </g>
    </g>
</svg>