<?xml version="1.0" encoding="UTF-8" standalone="no"?>
<svg width="40px" height="40px" viewBox="0 0 40 40" version="1.1" xmlns="http://www.w3.org/2000/svg" xmlns:xlink="http://www.w3.org/1999/xlink">
    <!-- Generator: Sketch 39 (31667) - http://www.bohemiancoding.com/sketch -->
    <title>WhatsApp</title>
    <desc>Created with Sketch.</desc>
    <defs></defs>
    <g id="Page-1" stroke="none" stroke-width="1" fill="none" fill-rule="evenodd">
        <g id="Route-2---Article-" transform="translate(-280.000000, -24.000000)">
            <g id="Bar-in-black" transform="translate(0.000000, 24.000000)">
                <g id="WhatsApp" transform="translate(280.000000, 0.000000)">
                    <path d="M7.10542736e-15,40 L7.10542736e-15,0 L39.8429763,0 C39.8429763,0 40.1962796,40 39.8429763,40 L7.10542736e-15,40 Z" id="background" fill="#25D366"></path>
                    <path d="M27.2293556,12.7879765 C25.4427208,10.9931027 23.0711217,10.0045555 20.5408115,10 C15.3260143,10 11.0861575,14.263964 11.0816229,19.4982532 C11.0816229,21.1746835 11.5169451,22.8055587 12.3422434,24.2496576 L11,29.1741716 L16.0152745,27.8530716 C17.3983294,28.6092875 18.9536993,29.010173 20.5362768,29.010173 L20.5408115,29.010173 L20.5408115,29.010173 C25.751074,29.010173 29.9954654,24.746209 30,19.5073643 C30,16.9699412 29.0159905,14.5828502 27.2293556,12.7879765 L27.2293556,12.7879765 Z M20.5408115,27.406631 L20.5408115,27.406631 C19.1260143,27.406631 17.7429594,27.0239675 16.5367542,26.3041958 L16.251074,26.1310862 L13.2763723,26.9146351 L14.0699284,23.9991041 L13.8840095,23.69844 C13.0949881,22.4411173 12.6823389,20.9879073 12.6823389,19.4982532 C12.6823389,15.1431788 16.2102625,11.603542 20.5453461,11.603542 C22.6448687,11.603542 24.6174224,12.4280906 26.1047733,13.9177447 C27.5875895,15.4119544 28.4038186,17.3936043 28.4038186,19.5028087 C28.399284,23.8624386 24.8713604,27.406631 20.5408115,27.406631 L20.5408115,27.406631 Z M24.853222,21.4890142 C24.6174224,21.3705708 23.4565632,20.7965756 23.2389021,20.7145763 C23.0212411,20.6371325 22.8625298,20.5961328 22.7083532,20.8330197 C22.549642,21.0699066 22.0961814,21.6074576 21.9601432,21.7623452 C21.824105,21.9217883 21.6835322,21.9400104 21.4477327,21.821567 C21.2119332,21.7031235 20.4501193,21.4525701 19.5477327,20.641688 C18.8448687,20.0130267 18.3732697,19.2340332 18.2326969,18.9971463 C18.0966587,18.7602594 18.2190931,18.632705 18.3369928,18.5142615 C18.4412888,18.4094846 18.5727924,18.236375 18.6906921,18.0997095 C18.8085919,17.9630439 18.8494033,17.8628226 18.9264916,17.7033795 C19.00358,17.5439364 18.9673031,17.4072709 18.9083532,17.2888274 C18.8494033,17.170384 18.3778043,15.9996161 18.1782816,15.5258423 C17.9878282,15.0611795 17.7928401,15.1249568 17.6477327,15.1204013 C17.5116945,15.1112902 17.3529833,15.1112902 17.1942721,15.1112902 C17.0355609,15.1112902 16.7816229,15.1705119 16.5639618,15.4073988 C16.3463007,15.6442857 15.7386635,16.2182809 15.7386635,17.3890488 C15.7386635,18.5598167 16.5866348,19.6850294 16.7045346,19.8444725 C16.8224344,20.0039156 18.3687351,22.4001176 20.7403341,23.4296645 C21.3026253,23.6756624 21.7424821,23.821439 22.0871122,23.9307714 C22.6539379,24.1129921 23.1663484,24.085659 23.574463,24.0264372 C24.0279236,23.9581045 24.9711217,23.4524421 25.1706444,22.896669 C25.3656325,22.3408959 25.3656325,21.8671221 25.3066826,21.7669007 C25.2477327,21.6666794 25.0890215,21.6074576 24.853222,21.4890142 L24.853222,21.4890142 Z" id="Shape" fill="#FFFFFF"></path>
                </g>
            </g>
        </g>
    </g>
</svg>