<?xml version="1.0" encoding="UTF-8" standalone="no"?>
<svg width="40px" height="40px" viewBox="0 0 40 40" version="1.1" xmlns="http://www.w3.org/2000/svg" xmlns:xlink="http://www.w3.org/1999/xlink">
    <!-- Generator: Sketch 39 (31667) - http://www.bohemiancoding.com/sketch -->
    <title>Facebook</title>
    <desc>Created with Sketch.</desc>
    <defs></defs>
    <g id="Page-1" stroke="none" stroke-width="1" fill="none" fill-rule="evenodd">
        <g id="Route-2---Article-" transform="translate(-200.000000, -24.000000)">
            <g id="Bar-in-black" transform="translate(0.000000, 24.000000)">
                <g id="Facebook" transform="translate(200.000000, 0.000000)">
                    <rect id="Rectangle-125-Copy" fill="#3B5998" x="0" y="0" width="40" height="40"></rect>
                    <path d="M21.0561754,28 L21.0561754,21.1582968 L23.3517297,21.1582968 L23.6961306,18.4911724 L21.0561754,18.4911724 L21.0561754,16.7886025 C21.0561754,16.0166496 21.2696614,15.490573 22.3778934,15.490573 L23.7890472,15.4899928 L23.7890472,13.1044225 C23.545008,13.072709 22.7073076,13 21.732311,13 C19.6963626,13 18.3025158,14.2427243 18.3025158,16.5244523 L18.3025158,18.4911724 L16,18.4911724 L16,21.1582968 L18.3025158,21.1582968 L18.3025158,28 L21.0561754,28 L21.0561754,28 Z" id="f_1_" fill="#FDFDFD"></path>
                </g>
            </g>
        </g>
    </g>
</svg>