<?xml version="1.0" encoding="utf-8"?>
<!-- Generator: Adobe Illustrator 20.1.0, SVG Export Plug-In . SVG Version: 6.00 Build 0)  -->
<svg version="1.1" id="Layer_1" xmlns="http://www.w3.org/2000/svg" xmlns:xlink="http://www.w3.org/1999/xlink" x="0px" y="0px"
	 viewBox="0 0 1440 900" style="enable-background:new 0 0 1440 900;" xml:space="preserve">
<style type="text/css">
	.st0{fill:#393939;}
</style>
<path class="st0" d="M660.6,480.4v3.8H658v11.9c0,2.5-0.4,4.5-2.2,6.3c-1.7,1.8-4,2.4-6.4,2.4c-2.3,0-4.5-0.5-6.2-2.2
	c-2-1.9-2.4-4-2.4-6.7v-11.8h-2.6v-3.8h9.4v3.8h-2.2v11.3c0,1.1,0,2.4,0.7,3.4c0.7,1.1,2,1.7,3.3,1.7c1.2,0,2.3-0.5,3.1-1.4
	c0.8-1,0.9-2.4,0.9-3.6v-11.3h-2.2v-3.8H660.6z"/>
<path class="st0" d="M664,490.3h-2.3v-3.8h6.4v2.6c1.1-2,3.1-3,5.3-3c2,0,3.9,0.8,5.2,2.2c1.5,1.6,1.5,3.2,1.5,5.3v7h2.3v3.8h-8.7
	v-3.8h2.3v-5.8c0-1.1,0-2.3-0.7-3.2c-0.7-1-2-1.4-3.2-1.4c-1.2,0-2.5,0.5-3.3,1.5c-0.8,1-0.8,2.6-0.8,3.8v5.2h2.3v3.8h-8.7v-3.8h2.3
	V490.3z"/>
<path class="st0" d="M690.2,500.6h2.3v3.8h-8.8v-3.8h2.4v-10.3h-2.3v-3.8h6.4V500.6z M690.2,484.7h-4.1v-4.3h4.1V484.7z"/>
<path class="st0" d="M704.6,504.4h-4.3l-5.5-14.1h-2.2v-3.8h8.4v3.8h-1.8l3.3,9.1h0l3.5-9.1h-1.9v-3.8h8.3v3.8h-2.1L704.6,504.4z"/>
<path class="st0" d="M730.6,499.1c-1.4,3.4-4.7,5.8-8.5,5.8c-5.3,0-9.5-4.1-9.5-9.4c0-5.3,4-9.6,9.4-9.6c2.5,0,5,1.1,6.7,2.9
	c1.8,1.9,2.5,4.2,2.5,6.7l-0.1,1.4h-14.5c0.5,2.5,2.8,4.3,5.4,4.3c1.8,0,3.3-0.7,4.3-2.1L730.6,499.1L730.6,499.1z M727.4,493.8
	c-0.7-2.6-3-4.2-5.7-4.2c-2.4,0-4.7,1.9-5.3,4.2H727.4z"/>
<path class="st0" d="M738.4,489.5c1-2.1,3.1-3.2,5.4-3.3v4.2c-1.3,0.1-2.5,0.4-3.5,1.3c-1.3,1.1-1.6,2.6-1.6,4.3v4.5h2.3v3.8h-8.7
	v-3.8h2.3v-10.3h-2.3v-3.8h6.1V489.5z"/>
<path class="st0" d="M748.9,499.2c0.1,1.6,1.2,2.7,2.9,2.7c1.2,0,2.5-0.9,2.5-2.2c0-1.8-1.7-2.1-3.1-2.5c-3.1-0.8-6.6-1.8-6.6-5.7
	c0-3.4,2.9-5.4,6.1-5.4c1.6,0,3.1,0.3,4.1,1.6v-1.2h3v4.9h-4c-0.1-1.3-1-2.1-2.3-2.1c-1.1,0-2.3,0.6-2.3,1.9c0,1.7,1.6,2.1,3,2.4
	c3.2,0.7,6.7,1.8,6.7,5.8c0,3.6-3.1,5.7-6.4,5.7c-1.8,0-3.5-0.6-4.6-2v1.5h-3.1v-5.2H748.9z"/>
<path class="st0" d="M766.3,500.6h2.3v3.8h-8.8v-3.8h2.4v-10.3h-2.3v-3.8h6.4L766.3,500.6L766.3,500.6z M766.3,484.7h-4.1v-4.3h4.1
	V484.7z"/>
<path class="st0" d="M775.7,500.6h3.3v3.8h-7.4v-14.1h-2.8v-3.8h2.8v-6.1h4.1v6.1h3.1v3.8h-3.1V500.6z"/>
<path class="st0" d="M791.3,507.2h2.4v3.8h-8.7v-3.8h2.3l1.2-3l-5.5-13.9h-2.4v-3.8h8.5v3.8h-1.8l3.2,8.8l3.4-8.8h-1.8v-3.8h8.4v3.8
	h-2.3L791.3,507.2z"/>
<path class="st0" d="M745.8,512.6c0,2.8-1.7,4.6-4.3,4.6c-1.3,0-2.3-0.5-2.9-1.4v4.6H736v-12.5h2.6v1.3c0.6-0.9,1.7-1.4,2.9-1.4
	C744.1,507.8,745.8,509.7,745.8,512.6z M743.1,512.5c0-1.5-0.9-2.5-2.3-2.5s-2.3,1-2.3,2.5c0,1.5,0.9,2.5,2.3,2.5
	C742.2,515,743.1,514,743.1,512.5z"/>
<path class="st0" d="M752.4,517.1V516c-0.6,0.8-1.6,1.2-2.9,1.2c-2,0-3.2-1.2-3.2-2.9c0-1.7,1.2-2.7,3.5-2.8h2.5v-0.2
	c0-1-0.6-1.5-1.9-1.5c-0.8,0-1.8,0.3-2.7,0.8l-0.8-1.8c1.4-0.7,2.5-1.1,4.2-1.1c2.5,0,3.9,1.2,3.9,3.3l0,6L752.4,517.1L752.4,517.1z
	 M752.4,514v-0.8h-2.1c-1,0-1.5,0.3-1.5,1c0,0.7,0.5,1.2,1.4,1.2C751.3,515.3,752.2,514.7,752.4,514z"/>
<path class="st0" d="M766.3,512.6c0,2.8-1.7,4.6-4.3,4.6c-1.3,0-2.3-0.5-2.9-1.4v4.6h-2.6v-12.5h2.6v1.3c0.6-0.9,1.7-1.4,2.9-1.4
	C764.6,507.8,766.3,509.7,766.3,512.6z M763.7,512.5c0-1.5-0.9-2.5-2.3-2.5s-2.3,1-2.3,2.5c0,1.5,0.9,2.5,2.3,2.5
	C762.8,515,763.7,514,763.7,512.5z"/>
<path class="st0" d="M776.3,513.3h-6.6c0.3,1.2,1.2,1.8,2.4,1.8c0.9,0,1.7-0.3,2.3-1l1.4,1.4c-0.9,1-2.3,1.6-3.9,1.6
	c-2.9,0-4.8-1.9-4.8-4.7c0-2.8,1.9-4.7,4.7-4.7C775,507.8,776.5,510,776.3,513.3z M773.8,511.7c0-1.2-0.8-2-2-2
	c-1.2,0-1.9,0.8-2.1,2H773.8z"/>
<path class="st0" d="M783.3,507.8v2.5c-1.9-0.2-3,0.8-3,2.4v4.4h-2.6v-9.2h2.6v1.7C780.9,508.4,782,507.8,783.3,507.8z"/>
</svg>
